<?xml version="1.0" encoding="iso-8859-1"?>
<!-- Generator: Adobe Illustrator 18.0.0, SVG Export Plug-In . SVG Version: 6.00 Build 0)  -->
<!DOCTYPE svg PUBLIC "-//W3C//DTD SVG 1.1//EN" "http://www.w3.org/Graphics/SVG/1.1/DTD/svg11.dtd">
<svg xmlns="http://www.w3.org/2000/svg" xmlns:xlink="http://www.w3.org/1999/xlink" version="1.1" id="Capa_1" x="0px" y="0px" viewBox="0 0 452.95 452.95" style="enable-background:new 0 0 452.95 452.95;" xml:space="preserve" width="512px" height="512px">
<g>
	<path d="M426.211,430.409c11.658,0,18.633,6.337,23.414,12.059V0H264.043v442.472c4.781-5.722,11.758-12.063,23.42-12.063   c14.22,0,21.475,9.429,26.275,15.668c4.449,5.781,5.786,6.873,8.415,6.873c2.627,0,3.962-1.092,8.41-6.872   c4.802-6.239,12.057-15.668,26.276-15.668c14.219,0,21.475,9.429,26.275,15.668c4.448,5.781,5.784,6.872,8.412,6.872   c2.625,0,3.961-1.092,8.409-6.872C404.738,439.838,411.99,430.409,426.211,430.409z" fill="#FFFFFF"/>
	<rect x="191.913" y="183.517" width="49.589" height="134.868" fill="#FFFFFF"/>
	<rect x="191.913" y="26.11" width="49.589" height="134.867" fill="#FFFFFF"/>
	<path d="M23.611,318.385h145.762V183.517H3.325v114.581C3.325,309.284,12.426,318.385,23.611,318.385z" fill="#FFFFFF"/>
	<path d="M169.373,26.11H23.611c-11.186,0-20.286,9.101-20.286,20.286v114.581h166.048V26.11z" fill="#FFFFFF"/>
</g>
<g>
</g>
<g>
</g>
<g>
</g>
<g>
</g>
<g>
</g>
<g>
</g>
<g>
</g>
<g>
</g>
<g>
</g>
<g>
</g>
<g>
</g>
<g>
</g>
<g>
</g>
<g>
</g>
<g>
</g>
</svg>
