<?xml version="1.0" encoding="iso-8859-1"?>
<!-- Generator: Adobe Illustrator 19.0.0, SVG Export Plug-In . SVG Version: 6.00 Build 0)  -->
<svg xmlns="http://www.w3.org/2000/svg" xmlns:xlink="http://www.w3.org/1999/xlink" version="1.1" id="Capa_1" x="0px" y="0px" viewBox="0 0 60 60" style="enable-background:new 0 0 60 60;" xml:space="preserve" width="512px" height="512px">
<g>
	<path d="M37,32.462v-2.924L34.038,29.5L34,32.462l2.962,0.038C36.983,32.5,37,32.483,37,32.462z" fill="#FFFFFF"/>
	<path d="M12,21.462l2.962,0.038c0.021,0,0.038-0.017,0.038-0.038v-2.924L12.038,18.5L12,21.462z" fill="#FFFFFF"/>
	<path d="M60,45.5v-40H0v40h29v4H15v5h30v-5H31v-4H60z M43,18.538c0-1.124,0.914-2.038,2.038-2.038h2.924   c1.124,0,2.038,0.914,2.038,2.038v2.924c0,1.124-0.914,2.038-2.038,2.038h-2.924C43.914,23.5,43,22.586,43,21.462V18.538z    M43,29.538c0-1.124,0.914-2.038,2.038-2.038h2.924c1.124,0,2.038,0.914,2.038,2.038v2.924c0,1.124-0.914,2.038-2.038,2.038h-2.924   C43.914,34.5,43,33.586,43,32.462V29.538z M32,18.538c0-1.124,0.914-2.038,2.038-2.038h2.924c1.124,0,2.038,0.914,2.038,2.038   v2.924c0,1.124-0.914,2.038-2.038,2.038h-2.924C32.914,23.5,32,22.586,32,21.462V18.538z M32,29.538   c0-1.124,0.914-2.038,2.038-2.038h2.924c1.124,0,2.038,0.914,2.038,2.038v2.924c0,1.124-0.914,2.038-2.038,2.038h-2.924   C32.914,34.5,32,33.586,32,32.462V29.538z M17,32.462c0,1.124-0.914,2.038-2.038,2.038h-2.924C10.914,34.5,10,33.586,10,32.462   v-2.924c0-1.124,0.914-2.038,2.038-2.038h2.924c1.124,0,2.038,0.914,2.038,2.038V32.462z M17,21.462   c0,1.124-0.914,2.038-2.038,2.038h-2.924C10.914,23.5,10,22.586,10,21.462v-2.924c0-1.124,0.914-2.038,2.038-2.038h2.924   c1.124,0,2.038,0.914,2.038,2.038V21.462z M28,32.462c0,1.124-0.914,2.038-2.038,2.038h-2.924C21.914,34.5,21,33.586,21,32.462   v-2.924c0-1.124,0.914-2.038,2.038-2.038h2.924c1.124,0,2.038,0.914,2.038,2.038V32.462z M28,21.462   c0,1.124-0.914,2.038-2.038,2.038h-2.924C21.914,23.5,21,22.586,21,21.462v-2.924c0-1.124,0.914-2.038,2.038-2.038h2.924   c1.124,0,2.038,0.914,2.038,2.038V21.462z" fill="#FFFFFF"/>
	<path d="M37,21.462v-2.924L34.038,18.5L34,21.462l2.962,0.038C36.983,21.5,37,21.483,37,21.462z" fill="#FFFFFF"/>
	<path d="M12,32.462l2.962,0.038c0.021,0,0.038-0.017,0.038-0.038v-2.924L12.038,29.5L12,32.462z" fill="#FFFFFF"/>
	<path d="M23,21.462l2.962,0.038c0.021,0,0.038-0.017,0.038-0.038v-2.924L23.038,18.5L23,21.462z" fill="#FFFFFF"/>
	<path d="M48,21.462v-2.924L45.038,18.5L45,21.462l2.962,0.038C47.982,21.5,48,21.483,48,21.462z" fill="#FFFFFF"/>
	<path d="M48,32.462v-2.924L45.038,29.5L45,32.462l2.962,0.038C47.982,32.5,48,32.483,48,32.462z" fill="#FFFFFF"/>
	<path d="M23,32.462l2.962,0.038c0.021,0,0.038-0.017,0.038-0.038v-2.924L23.038,29.5L23,32.462z" fill="#FFFFFF"/>
</g>
<g>
</g>
<g>
</g>
<g>
</g>
<g>
</g>
<g>
</g>
<g>
</g>
<g>
</g>
<g>
</g>
<g>
</g>
<g>
</g>
<g>
</g>
<g>
</g>
<g>
</g>
<g>
</g>
<g>
</g>
</svg>
